<svg width="1024" height="1024" viewBox="0 0 1024 1024" fill="none" xmlns="http://www.w3.org/2000/svg">
<circle cx="512" cy="512" r="446" fill="#34495E"/>
<path fill-rule="evenodd" clip-rule="evenodd" d="M512 66V490.5L864.78 784.912C923.218 709.483 958 614.803 958 512C958 265.681 758.319 66 512 66Z" fill="#1F3449"/>
<path fill-rule="evenodd" clip-rule="evenodd" d="M512 870.891C710.21 870.891 870.891 710.21 870.891 512C870.891 313.79 710.21 153.109 512 153.109C313.79 153.109 153.109 313.79 153.109 512C153.109 710.21 313.79 870.891 512 870.891ZM512 958C758.319 958 958 758.319 958 512C958 265.681 758.319 66 512 66C265.681 66 66 265.681 66 512C66 758.319 265.681 958 512 958Z" fill="#41B883"/>
<path fill-rule="evenodd" clip-rule="evenodd" d="M900.342 199.175L519.128 631.07L324 435.943L394.711 365.232L514.583 485.104L825.369 133L900.342 199.175Z" fill="white" stroke="#41B883" stroke-width="15"/>
<path d="M176.503 513.464C174.499 512.95 174.499 510.103 176.503 509.589L227.574 496.494C237.391 493.977 246.948 501.392 246.948 511.527C246.948 521.661 237.391 529.076 227.574 526.559L176.503 513.464Z" fill="#D9D9D9"/>
<path d="M847.444 509.589C849.449 510.103 849.449 512.95 847.444 513.464L796.373 526.559C786.556 529.076 777 521.661 777 511.527C777 501.392 786.556 493.977 796.373 496.494L847.444 509.589Z" fill="#CACACA"/>
<path d="M513.911 846.997C513.397 849.002 510.55 849.002 510.036 846.997L496.941 795.926C494.424 786.109 501.839 776.553 511.974 776.553C522.108 776.553 529.523 786.109 527.006 795.926L513.911 846.997Z" fill="#D9D9D9"/>
<path d="M510.036 176.056C510.55 174.052 513.397 174.052 513.911 176.056L527.006 227.127C529.523 236.944 522.108 246.501 511.974 246.501C501.839 246.501 494.424 236.944 496.941 227.127L510.036 176.056Z" fill="#D9D9D9"/>
<path d="M750.557 747.37C751.611 749.151 749.598 751.164 747.817 750.11L702.445 723.257C693.723 718.095 692.209 706.095 699.375 698.929C706.542 691.762 718.542 693.276 723.704 701.998L750.557 747.37Z" fill="#D9D9D9"/>
<path d="M273.39 275.683C272.337 273.902 274.35 271.889 276.13 272.943L321.503 299.796C330.224 304.958 331.738 316.959 324.572 324.125C317.406 331.291 305.405 329.777 300.243 321.055L273.39 275.683Z" fill="#D9D9D9"/>
<path d="M276.13 750.11C274.349 751.164 272.336 749.151 273.39 747.37L300.243 701.998C305.405 693.276 317.406 691.762 324.572 698.928C331.738 706.095 330.224 718.095 321.502 723.257L276.13 750.11Z" fill="#D9D9D9"/>
</svg>
